<?xml version="1.0" standalone="no"?>
<!-- Generator: Adobe Fireworks 10, Export SVG Extension by Aaron Beall (http://fireworks.abeall.com) . Version: 0.6.1  -->
<!DOCTYPE svg PUBLIC "-//W3C//DTD SVG 1.1//EN" "http://www.w3.org/Graphics/SVG/1.1/DTD/svg11.dtd">
<svg id="Untitled-Page%201" viewBox="0 0 54 54" style="background-color:#ffffff00" version="1.1"
	xmlns="http://www.w3.org/2000/svg" xmlns:xlink="http://www.w3.org/1999/xlink" xml:space="preserve"
	x="0px" y="0px" width="54px" height="54px"
>
	<g id="Layer%201">
		<g>
			<path id="Ellipse" opacity="0.8" d="M 2 27 C 2 13.1926 13.1927 2 27 2 C 40.8073 2 52 13.1926 52 27 C 52 40.8074 40.8073 52 27 52 C 13.1927 52 2 40.8074 2 27 Z" fill="#21272a"/>
			<g>
				<path d="M 6.1836 27.2 C 6.1836 15.6177 15.5728 6.2285 27.1552 6.2285 C 38.7375 6.2285 48.1267 15.6177 48.1267 27.2 C 48.1267 38.7825 38.7375 48.1716 27.1552 48.1716 C 15.5728 48.1716 6.1836 38.7825 6.1836 27.2 ZM 0.9408 27.2 C 0.9408 41.678 12.6771 53.4144 27.1552 53.4144 C 41.6332 53.4144 53.3696 41.678 53.3696 27.2 C 53.3696 12.722 41.6332 0.9856 27.1552 0.9856 C 12.6771 0.9856 0.9408 12.722 0.9408 27.2 Z" fill="#ffffff"/>
				<path id="Polygon" d="M 32.3981 27.7244 L 24.6648 34.762 L 24.6648 20.6865 L 32.3981 27.7244 Z" fill="#ffffff"/>
			</g>
		</g>
	</g>
</svg>