<?xml version="1.0" encoding="iso-8859-1"?>
<!-- Generator: Adobe Illustrator 16.0.0, SVG Export Plug-In . SVG Version: 6.00 Build 0)  -->
<!DOCTYPE svg PUBLIC "-//W3C//DTD SVG 1.1//EN" "http://www.w3.org/Graphics/SVG/1.1/DTD/svg11.dtd">
<svg xmlns="http://www.w3.org/2000/svg" xmlns:xlink="http://www.w3.org/1999/xlink" version="1.1" id="Capa_1" x="0px" y="0px" width="512px" height="512px" viewBox="0 0 31.736 31.736" style="enable-background:new 0 0 31.736 31.736;" xml:space="preserve">
<g>
	<g>
		<polygon points="24.071,26.357 22.054,26.357 19.028,26.357 16.008,29.977 12.89,26.357 9.695,26.357 7.421,26.357 5.664,26.357     5.664,31.736 25.786,31.736 25.63,26.357   " fill="#555555"/>
		<path d="M15.868,25.125c4.522,0,8.188-3.666,8.188-8.188c0-1.019-0.193-1.988-0.533-2.889c0.174,0.067,0.278,0.11,0.278,0.11    v-4.43c0,0-3.998-2.116-7.97-2.116c-3.972,0-7.846,2.176-7.846,2.176v4.371c0,0,0.081-0.033,0.222-0.088    c-0.334,0.893-0.525,1.854-0.525,2.865C7.681,21.459,11.345,25.125,15.868,25.125z" fill="#555555"/>
		<path d="M28.241,8.748l1.572-0.846L28.241,7.03V6.619c0,0,0.441-2.246-2.074-1.072c-0.128,0.07-0.196,0.141-0.225,0.209L15.563,0    L1.923,7.806l5.15,2.34v-0.76c0,0,4.322-2.427,8.753-2.427c4.429,0,8.887,2.358,8.887,2.358v1.327l2.842-1.527    c0,1.77,0,5.553,0,6.184H26.61v2.197l1.258-0.87l1.396,0.87v-2.197h-1.023V8.748L28.241,8.748z M27.555,6.237    c0,0.053,0,0.198,0,0.413l-0.83-0.459C27.028,5.988,27.555,5.713,27.555,6.237z M27.274,8.662c-0.367,0-0.664-0.297-0.664-0.664    c0-0.368,0.297-0.666,0.664-0.666S27.94,7.63,27.94,7.998C27.94,8.365,27.642,8.662,27.274,8.662z" fill="#555555"/>
	</g>
</g>
<g>
</g>
<g>
</g>
<g>
</g>
<g>
</g>
<g>
</g>
<g>
</g>
<g>
</g>
<g>
</g>
<g>
</g>
<g>
</g>
<g>
</g>
<g>
</g>
<g>
</g>
<g>
</g>
<g>
</g>
</svg>
