<svg version="1.0" xmlns="http://www.w3.org/2000/svg" width="500.000000pt" height="500.000000pt" viewBox="0 0 500.000000 500.000000"><path d="M670 2500 l0 -2500 434 0 433 0 1 1038 c0 570 1 1039 1 1042 1 3 358 6 794 6 435 0 837 3 892 7 566 38 1015 446 1094 997 16 110 12 851 -5 948 -72 411 -327 717 -729 877 -11 4 -24 9 -30 11 -5 1 -42 12 -81 24 -164 48 -169 48 -1526 49 l-1278 1 0 -2500z m2600 1689 c93 -44 167 -137 186 -235 4 -21 7 -211 7 -421 0 -452 0 -450 -98 -548 -102 -102 -32 -95 -992 -95 l-833 0 -1 23 c-1 31 -1 1224 0 1267 l1 35 838 0 837 -1 55 -25z" transform="translate(0.000000,500.000000) scale(0.100000,-0.100000)"/></svg>