<svg xmlns="http://www.w3.org/2000/svg"><defs><style>.cls-1{fill:#1e1e22;fill-rule:evenodd}</style></defs><symbol viewBox="0 0 18 18" id="arrow-next"><path id="arrow-next-arrow.svg" d="M12.6,9L4,17.3L4.7,18l8.5-8.3l0,0L14,9l0,0l-0.7-0.7l0,0L4.7,0L4,0.7L12.6,9z"/></symbol><symbol viewBox="0 0 18 18" id="arrow-prev"><path id="arrow-prev-arrow.svg" d="M14,0.7L13.3,0L4.7,8.3l0,0L4,9l0,0l0.7,0.7l0,0l8.5,8.3l0.7-0.7L5.4,9L14,0.7z"/></symbol><symbol viewBox="0 0 9.062 9.062" id="icon-close"><path class="cls-1" d="M747.328,84.964l0.708,0.707-8.364,8.364-0.708-.707ZM748,93.3l-0.7.7L739,85.7l0.7-.7Z" transform="translate(-738.969 -84.969)"/></symbol><symbol viewBox="0 0 25 25" id="icon-filters"><path d="M4,4.1V1H3v3.1C1.3,4.3,0,5.7,0,7.5s1.3,3.2,3,3.4V24h1V10.9c1.7-0.2,3-1.7,3-3.4C7,5.7,5.7,4.3,4,4.1z M3.5,10 C2.1,10,1,8.9,1,7.5S2.1,5,3.5,5S6,6.1,6,7.5S4.9,10,3.5,10z M22,4.1V1h-1v3.1c-1.7,0.2-3,1.7-3,3.4c0,1.8,1.3,3.2,3,3.4V24h1V10.9 c1.7-0.2,3-1.7,3-3.4C25,5.7,23.7,4.3,22,4.1z M21.5,10C20.1,10,19,8.9,19,7.5S20.1,5,21.5,5S24,6.1,24,7.5S22.9,10,21.5,10z M13,14.1V1h-1v13.1c-1.7,0.2-3,1.7-3,3.4c0,1.8,1.3,3.2,3,3.4V24h1v-3.1c1.7-0.2,3-1.7,3-3.4C16,15.7,14.7,14.3,13,14.1z M12.5,20 c-1.4,0-2.5-1.1-2.5-2.5s1.1-2.5,2.5-2.5s2.5,1.1,2.5,2.5S13.9,20,12.5,20z"/></symbol><symbol viewBox="0 0 20 20" id="icon-link"><path d="M1.9,10A3.12,3.12,0,0,1,5,6.9H9V5H5A5,5,0,0,0,5,15H9V13.1H5A3.12,3.12,0,0,1,1.9,10ZM6,11h8V9H6Zm9-6H11V6.9h4a3.1,3.1,0,1,1,0,6.2H11V15h4A5,5,0,0,0,15,5Z"/></symbol><symbol viewBox="0 0 14 14" id="icon-play"><style>.st0{fill:#1e1e22}</style><path class="st0" d="M4,14l10-7L4,0V14z"/></symbol><symbol viewBox="0 0 23 23" id="icon-search"><path d="M23,22.2l-8.1-8.1c1.3-1.5,2.2-3.5,2.2-5.6C17,3.8,13.2,0,8.5,0S0,3.8,0,8.5S3.8,17,8.5,17c2.2,0,4.1-0.8,5.6-2.2l8.1,8.1	L23,22.2z M8.5,16C4.4,16,1,12.6,1,8.5S4.4,1,8.5,1S16,4.4,16,8.5S12.6,16,8.5,16z"/></symbol><symbol viewBox="0 0 501 501" id="letter-a"><path id="letter-a-a.svg" d="M442.9,500.5L262.9,0.5h-82.1L0,500.5h95.7l28.6-82.1H315l28.6,82.1H442.9z M220.7,143.3l67.1,195.1H151.4	l67.9-195.1L220.7,143.3L220.7,143.3z"/></symbol><symbol viewBox="0 0 501 501" id="letter-b"><path d="M0,500.5V0.5h212.1c44.3,0,79.9,13,106.8,38.9c26.9,26,40.4,57.7,40.4,95.4c0,41.9-18.1,73.6-54.3,95v0.7 c21.4,9.1,38.9,23.5,52.5,43.2c13.6,19.8,20.4,43.5,20.4,71.1c0,47.6-14.5,85.7-43.6,114.3c-29.1,27.6-76.9,41.4-143.6,41.4H0z M96.4,201.9H200c19.5,0,34.9-4.6,46.1-13.9c11.2-9.3,16.8-23,16.8-41.1c0-19-5.5-33.3-16.4-42.9c-11-9.5-26.4-14.3-46.4-14.3H96.4 V201.9z M96.4,411.2h116.4c45.7,0,68.6-22.1,68.6-66.4c0-20.5-6.1-36.3-18.2-47.5c-12.1-11.2-28.7-16.8-49.6-16.8H96.4V411.2z"/></symbol><symbol viewBox="0 0 501 501" id="letter-c"><path id="letter-c-carriere.svg" fill="none" stroke-miterlimit="10" d="M208.2,414.9c-32.9,0-59.9-14-81.2-42.1	c-21.2-28.1-31.8-71.3-31.8-129.8c0-49.8,11-88.3,32.9-115.8c21.9-27.4,48.6-41.1,80.1-41.1c27.8,0,49.3,9.2,64.4,27.7	c15.1,18.5,24.7,42.4,28.8,71.6l91.8-14.4c-5.5-52.1-25.5-93.5-59.9-124.3C298.7,15.9,256.8,0.5,207.5,0.5	C150.9,0.5,102.2,22,61.3,64.9C20.4,107.8,0,167.2,0,243c0,86.3,19.3,150.8,57.9,193.5c38.6,42.7,88.7,64,150.3,64	c53,0,95.9-16,128.8-47.9c32.9-32,53.2-75.8,61-131.5l-95.9-21.2C293.4,376.5,262.1,414.9,208.2,414.9L208.2,414.9L208.2,414.9z"/></symbol><symbol viewBox="0 0 501 501" id="letter-e"><path id="letter-e-expertise.svg" stroke-miterlimit="10" d="M316.4,500.5v-89.3h-220V287.6h200v-85.7h-200	V89.8h220V0.5H0v500H316.4z"/></symbol><symbol viewBox="0 0 501 501" id="letter-h"><path id="letter-h-histoire.svg" fill="none" stroke-miterlimit="10" d="M96.4,500.5V284.1h171.4v216.4h96.4V0.5h-96.4	v201.4H96.4V0.5H0v500H96.4z"/></symbol><symbol viewBox="0 0 501 501" id="letter-n"><path id="letter-n-nouvelles.svg" stroke-miterlimit="10" d="M96.4,500.5V172.6h1.4l185,327.9h95V0.5h-97.1	v327.9h-1.4L96.4,0.5H0v500H96.4z"/></symbol><symbol viewBox="0 0 501 501" id="letter-p"><style>.st0{fill:#010101}</style><path id="letter-p-p.svg" class="st0" d="M96.4,500.5V318.4h106.4c53.3,0,95.3-14.3,126.1-42.9c30.7-28.6,46.1-67.1,46.1-115.7	s-16-87.3-47.9-116.1C295.2,14.9,253.8,0.5,202.9,0.5H0v500H96.4z M96.4,89.8h105c20.9,0,38.4,5.6,52.5,16.8	c14,11.2,21.1,28.9,21.1,53.2c0,21-6.9,37.7-20.7,50.4c-13.8,12.6-31.4,18.9-52.9,18.9h-105V89.8z"/></symbol><symbol viewBox="0 0 668 158.7" id="logo"><path d="M39.7,47.9H14.2v34.3H0V0h39.7c11.6,0,20.1,8.1,20.1,19.1v9.5C59.8,39.7,51.3,47.9,39.7,47.9z M45.6,18.1 c0-2.8-2.4-5.2-5-5.2H14.2v21.8h26.5c2.6,0,5-2.4,5-5.1V18.1z"/><path d="M119.2,82.2H94.5c-11.6,0-20.1-8.1-20.1-19.1V19.1C74.4,8.1,82.9,0,94.5,0h24.7c11.6,0,20.1,8.1,20.1,19.1 v43.9C139.3,74.1,130.8,82.2,119.2,82.2z M125.1,18.4c0-2.8-2.4-5.2-5-5.2H93.5c-2.6,0-5,2.4-5,5.2v45.3c0,2.8,2.4,5.2,5,5.2h26.6 c2.6,0,5-2.4,5-5.2V18.4z"/><path d="M209.9,82.2V23.5l-15,17.3h-8.8l-15-17.3v58.7h-14.5V0h11.8l22.5,26.2C191.4,24.5,212.6,0,212.6,0h11.8 v82.2H209.9z"/><path d="M242.2,82.2V0h53.3v13.2h-39.1v21.3h30.3v13.5h-30.3V69h39.1v13.2H242.2z"/><path d="M358.1,82.2V54.7c0-5.2-1.3-6.8-5.8-6.8h-27.2v34.3h-14V0h41.4c11.6,0,20.1,8.1,20.1,19.1v8.9 c0,6.9-3.1,10.8-5.5,12.9c2.6,1.8,5.5,5.5,5.5,11.9v29.3H358.1z M358.1,18.1c0-3-2.6-5.7-5-5.7h-28.1v21.8h26.5 c5.2,0,6.5-1.4,6.5-6.4V18.1z"/><path d="M390.4,82.2V0h14.7v69H442v13.2H390.4z"/><path d="M457.6,82.2V0h53.3v13.2h-39.1v21.3h30.3v13.5h-30.3V69h39.1v13.2H457.6z"/><path d="M588.8,82.2h-14.3V56.3h-33.7v25.9h-14.3v-50c0-5.8,1-9.5,5.4-13.6L551.4,0h12.5l19.6,18.6 c4.4,4.1,5.4,7.8,5.4,13.6V82.2z M574.5,32.9c0-3-0.1-3.7-1.8-5.4l-15.2-15c-0.7,1.1-14.9,15-14.9,15c-1.7,1.7-1.8,2.4-1.8,5.4 v10.9h33.7V32.9z"/><path d="M647.9,82.2H626c-11.6,0-20.1-8.1-20.1-19.1V0h14.7v63.8c0,2.8,2.4,5.2,5,5.2h22.7c2.6,0,5-2.4,5-5.2V0 H668v63.1C668,74.1,659.5,82.2,647.9,82.2z"/><g><path d="M0,153.5c0,2.9,2.4,5.3,5.3,5.3h657.5c2.9,0,5.3-2.4,5.3-5.3v-40c0-2.9-2.4-5.3-5.3-5.3H5.3 c-2.9,0-5.3,2.4-5.3,5.3V153.5z"/></g></symbol><symbol viewBox="0 0 333.6 452.6" id="number-0"><path d="M288.3,395.6c-30.2,38-70.7,57-121.5,57c-50.8,0-91.4-19-121.5-57C15.1,357.5,0,298.8,0,219.5C0,147.6,15.2,93,45.6,55.8 S116.3,0,166.8,0c50.4,0,90.8,18.6,121.2,55.8c30.4,37.2,45.6,91.8,45.6,163.7C333.6,298.8,318.5,357.5,288.3,395.6z M103.8,340.4 c13.4,23.2,34.4,34.7,62.9,34.7c28.5,0,49.5-11.6,62.9-34.7c13.4-23.1,20.1-63.4,20.1-120.9c0-50-6.9-86.2-20.8-108.5 c-13.9-22.3-34.6-33.5-62.3-33.5c-27.7,0-48.5,11.2-62.3,33.5c-13.9,22.3-20.8,58.5-20.8,108.5C83.7,276.9,90.4,317.2,103.8,340.4z"/></symbol><symbol viewBox="0 0 250.3 452.6" id="number-1"><path d="M128.6,448.3v-341L35,166.2V76.3l99.8-62h73.8v434H128.6z"/></symbol><symbol viewBox="0 0 333.6 452.6" id="number-2"><path d="M16.1,447.9v-62.6c0-39.7,9.5-70.7,28.5-93c15.7-18.6,48.4-40.3,98-65.1c2.9-1.2,7-3.3,12.4-6.2 c16.5-7.8,28.4-14,35.7-18.3c7.2-4.3,15.4-10,24.5-17c9.1-7,15.3-14.6,18.6-22.6c3.3-8.1,5-17.5,5-28.2c0-16.1-6.4-29.4-19.2-40 C206.7,84.3,189.5,79,168,79c-45.1,0-70.5,28.1-76.3,84.3l-79.4-10.5c2.9-47.5,18.3-84.1,46.2-109.7C86.5,17.5,124.4,4.6,172.4,4.6 c42.2,0,77,12.1,104.5,36.3c27.5,24.2,41.2,57.3,41.2,99.5c0,17.8-3.1,34-9.3,48.7c-6.2,14.7-15.2,27.7-27,39.1 c-11.8,11.4-23.6,20.9-35.3,28.5c-11.8,7.7-25.9,15.6-42.5,23.9c-31.8,16.1-53,27.3-63.6,33.5c-10.5,6.2-18.3,12.8-23.2,19.8 c-5.8,8.7-8.7,19.4-8.7,32.2h212.7v81.8H16.1z"/></symbol><symbol viewBox="0 0 333.6 452.6" id="number-3"><path d="M4.6,301.3L85.9,284c8.3,62.8,37.4,94.2,87.4,94.2c24.4,0,43.4-5.6,57-16.7c13.6-11.2,20.5-26.9,20.5-47.1 c0-42.6-27.1-63.9-81.2-63.9H141v-65.7h25.4c19.4,0,35-4.5,46.8-13.6c11.8-9.1,17.7-22.3,17.7-39.7c0-17.8-5.5-31.7-16.4-41.9 c-11-10.1-26.1-15.2-45.6-15.2c-37.6,0-59.7,21.9-66.3,65.7l-76.3-14.3C30.1,87,45,56.3,71.3,33.8C97.5,11.3,131.1,0,172,0 c39.3,0,71.8,10.8,97.7,32.5c25.8,21.7,38.8,50.7,38.8,87.1c0,26-6,46.1-18,60.1c-12,14.1-24.6,23.2-37.8,27.3v1.9 c17.4,3.7,34.4,14.8,51.2,33.2c16.7,18.4,25.1,44.3,25.1,77.8c0,38-13.6,69.7-40.9,94.9c-27.3,25.2-65.3,37.8-114.1,37.8 c-47.1,0-85.7-12.7-115.6-38.1C28.3,389,10.4,351.3,4.6,301.3z"/></symbol><symbol viewBox="0 0 333.6 452.6" id="number-4"><path d="M-4.7,360.2v-78.1L160.3,9.3h127.1v273.4h50.8v77.5h-50.8v83.1h-78.7v-83.1H-4.7z M79.7,282.7h129v-212h-1.2L79.7,282.7z"/></symbol><symbol viewBox="0 0 333.6 452.6" id="number-5"><path d="M2.8,330.8l78.7-33.5c6.6,22.7,17.5,40.8,32.5,54.2c15.1,13.4,33.4,20.1,54.9,20.1c23.6,0,43.1-6.8,58.6-20.5 s23.2-33.5,23.2-59.5c0-26-7.7-45.9-22.9-59.5c-15.3-13.6-34.3-20.5-57-20.5c-37.2,0-66.1,15.5-86.8,46.5l-65.1-32.9L56.7,4.6 h231.9v77.5H120l-16.7,98l0.6,0.6c2.1-3.3,6-7.1,11.8-11.5c5.8-4.3,15.7-8.9,29.8-13.6c14-4.7,29.5-7.1,46.5-7.1 c38.8,0,71.7,13.6,98.6,40.9c26.9,27.3,40.3,62.2,40.3,104.8c0,48-15.5,85.6-46.5,112.8s-69.4,40.9-115.3,40.9 c-43,0-78.3-10.7-106-32.2C35.2,394.2,15.2,365.9,2.8,330.8z"/></symbol><symbol viewBox="0 0 333.6 452.6" id="number-6"><path d="M84.6,204.6l0.6,0.6c7.4-12,20.2-23.3,38.4-34.1c18.2-10.7,40.7-16.1,67.6-16.1c38,0,71.3,12.8,99.8,38.4 c28.5,25.6,42.8,61.2,42.8,106.6c0,46.7-14.8,83.8-44.3,111.3c-29.6,27.5-65.8,41.2-108.8,41.2c-53.3,0-96.8-18.9-130.5-56.7 C16.5,358-0.3,303-0.3,230.6c0-64.5,16.2-119,48.7-163.7C80.8,22.3,124.5,0,179.5,0c40.1,0,71.7,10.6,94.9,31.9 c23.1,21.3,38,48.1,44.6,80.3l-75.6,19.8c-10.3-38.4-33.5-57.7-69.4-57.7c-26,0-47.1,11.9-63.2,35.6 C94.5,133.8,85.9,165.3,84.6,204.6z M98.3,296.4c0,25.2,7.3,44.9,22,58.9c14.7,14.1,34.8,21.1,60.5,21.1c24,0,42.6-7.4,55.8-22.3 c13.2-14.9,19.8-33.9,19.8-57c0-22.7-6.9-41.3-20.8-55.8c-13.9-14.5-33.2-21.7-58-21.7c-24.4,0-43.7,7.7-58,22.9 C105.4,257.7,98.3,275.7,98.3,296.4z"/></symbol><symbol viewBox="0 0 333.6 452.6" id="number-7"><path d="M24.5,443.3L230.9,88v-1.2H19.5V9.3H314v86.8L123.7,443.3H24.5z"/></symbol><symbol viewBox="0 0 333.6 452.6" id="number-8"><path d="M4.3,318.1c0-24.4,6.8-46.8,20.5-67.3c13.6-20.5,32.9-35,57.7-43.7v-1.2c-18.2-7.4-32.3-19.1-42.5-35 c-10.1-15.9-15.2-34.2-15.2-54.9c0-33.1,13-60.7,39.1-82.8C89.9,11.1,124.2,0,166.8,0c42.6,0,76.9,11.1,102.9,33.2 c26,22.1,39.1,49.7,39.1,82.8c0,20.7-5.1,39-15.2,54.9c-10.1,15.9-24.3,27.6-42.5,35v1.2c25.2,9.1,44.5,23.8,58,44 c13.4,20.3,20.2,43,20.2,68.2c0,42.2-14.8,74.9-44.3,98.3c-29.6,23.4-68.9,35-118.1,35c-49.2,0-88.6-11.8-118.1-35.3 C19.1,393.7,4.3,360.6,4.3,318.1z M86.2,310.6c0,19.4,6.9,35.2,20.8,47.4c13.8,12.2,33.8,18.3,59.8,18.3s45.9-6.1,59.5-18.3 c13.6-12.2,20.5-28,20.5-47.4c0-20.7-7-37.6-21.1-50.8c-14.1-13.2-33.7-19.8-58.9-19.8c-25.2,0-44.9,6.6-59.2,19.8 C93.3,273,86.2,290,86.2,310.6z M103.5,122.8c0,14.5,5.8,26.9,17.4,37.2c11.6,10.3,26.9,15.5,45.9,15.5c19,0,34.2-5.2,45.6-15.5 c11.4-10.3,17-22.7,17-37.2c0-14.9-5.5-27.5-16.4-37.8c-11-10.3-26.3-15.5-46.2-15.5c-20.3,0-35.9,5.2-46.8,15.5 C109,95.3,103.5,107.9,103.5,122.8z"/></symbol><symbol viewBox="0 0 333.6 452.6" id="number-9"><path d="M18.9,345.3l73.8-27.3c10.7,40.1,37.2,60.1,79.4,60.1c25.2,0,45.2-10.4,59.8-31.3c14.7-20.9,21.2-52.8,19.5-95.8h-1.2 c-2.9,9.5-13.1,19.8-30.7,31c-17.6,11.2-41.4,16.7-71.6,16.7c-37.2,0-70.6-13.4-100.1-40.3C18.2,231.7,3.4,195.9,3.4,151.3 c0-45.9,14.9-82.6,44.6-110C77.8,13.7,114.4,0,157.8,0c22.7,0,44,4.2,63.9,12.7c19.8,8.5,38.1,21.5,54.9,39.1 c16.7,17.6,29.9,41.5,39.4,71.9c9.5,30.4,14.3,65.4,14.3,105.1c0,74.4-14.1,130.3-42.2,167.7c-28.1,37.4-67.8,56.1-119,56.1 c-23.6,0-44.6-3.2-63.2-9.6s-33.6-15.2-45-26.4c-11.4-11.2-20.4-22.5-27-34.1C27.2,371,22.2,358.6,18.9,345.3z M160.9,226.9 c23.6,0,42.3-6,56.1-18c13.8-12,20.8-29.3,20.8-52.1c0-24.4-7-44.2-21.1-59.5c-14.1-15.3-33.5-22.9-58.3-22.9 c-22.3,0-40.5,7.2-54.6,21.7c-14.1,14.5-21.1,32.9-21.1,55.2s7,40.5,21.1,54.6C117.9,219.9,136.9,226.9,160.9,226.9z"/></symbol><symbol viewBox="0 0 24 24" id="social-email"><style>.st0{fill:#1e1e22}</style><path id="social-email-mail.svg" class="st0" d="M8,11.9L2,5.8V18L8,11.9z M12.7,14.2l8.5-8.7H2.8l8.5,8.7C11.7,14.5,12.3,14.5,12.7,14.2z M15.4,12.5l-2.2,2.2c-0.3,0.3-0.8,0.5-1.2,0.5c-0.5,0-0.9-0.2-1.2-0.5l-2.2-2.2l-5.9,6h18.7L15.4,12.5z M16,11.9l6,6.1V5.8L16,11.9	z"/></symbol><symbol viewBox="0 0 24 24" id="social-facebook"><path id="social-facebook-White_2_" d="M20.9,2H3.1C2.5,2,2,2.5,2,3.1v17.8C2,21.5,2.5,22,3.1,22h9.6v-7.7h-2.6v-3h2.6V9	c0-2.6,1.6-4,3.9-4c1.1,0,2.1,0.1,2.3,0.1v2.7l-1.6,0c-1.3,0-1.5,0.6-1.5,1.5v1.9h3l-0.4,3h-2.6V22h5.1c0.6,0,1.1-0.5,1.1-1.1V3.1	C22,2.5,21.5,2,20.9,2z"/></symbol><symbol viewBox="0 0 24 24" id="social-linkedin"><g fill-rule="evenodd" clip-rule="evenodd"><path d="M6.5,21.6V8.7H2.3v12.9H6.5L6.5,21.6z M4.4,6.9 c1.5,0,2.4-1,2.4-2.2c0-1.3-0.9-2.2-2.4-2.2C3,2.4,2,3.4,2,4.7C2,5.9,2.9,6.9,4.4,6.9L4.4,6.9L4.4,6.9z"/><path d="M8.9,21.6h4.3v-7.2c0-0.4,0-0.8,0.1-1c0.3-0.8,1-1.6,2.2-1.6 c1.6,0,2.2,1.2,2.2,2.9v6.9H22v-7.4c0-4-2.1-5.8-4.9-5.8c-2.3,0-3.3,1.3-3.9,2.2h0V8.7H8.9C9,9.9,8.9,21.6,8.9,21.6L8.9,21.6z"/></g></symbol><symbol viewBox="0 0 24 24" id="social-twitter"><path d="M22,5.8c-0.7,0.3-1.5,0.5-2.4,0.6c0.8-0.5,1.5-1.3,1.8-2.3c-0.8,0.5-1.7,0.8-2.6,1c-0.7-0.8-1.8-1.3-3-1.3	c-2.3,0-4.1,1.8-4.1,4.1c0,0.3,0,0.6,0.1,0.9C8.4,8.7,5.4,7.1,3.4,4.6C3,5.2,2.8,5.9,2.8,6.7c0,1.4,0.7,2.7,1.8,3.4	c-0.7,0-1.3-0.2-1.9-0.5c0,0,0,0,0,0.1c0,2,1.4,3.6,3.3,4c-0.3,0.1-0.7,0.1-1.1,0.1c-0.3,0-0.5,0-0.8-0.1c0.5,1.6,2,2.8,3.8,2.8	c-1.4,1.1-3.2,1.8-5.1,1.8c-0.3,0-0.7,0-1-0.1c1.8,1.2,4,1.8,6.3,1.8c7.5,0,11.7-6.3,11.7-11.7c0-0.2,0-0.4,0-0.5	C20.8,7.3,21.4,6.6,22,5.8z"/></symbol><symbol viewBox="0 0 24 24" id="social-youtube"><path d="M23.8,7.2c0,0-0.2-1.7-1-2.4c-0.9-1-1.9-1-2.4-1C17,3.6,12,3.6,12,3.6h0c0,0-5,0-8.4,0.2c-0.5,0.1-1.5,0.1-2.4,1 c-0.7,0.7-1,2.4-1,2.4S0,9.1,0,11.1v1.8c0,1.9,0.2,3.9,0.2,3.9s0.2,1.7,1,2.4c0.9,1,2.1,0.9,2.6,1c1.9,0.2,8.2,0.2,8.2,0.2 s5,0,8.4-0.3c0.5-0.1,1.5-0.1,2.4-1c0.7-0.7,1-2.4,1-2.4s0.2-1.9,0.2-3.9v-1.8C24,9.1,23.8,7.2,23.8,7.2z M9.5,15.1l0-6.7l6.5,3.4 L9.5,15.1z" id="social-youtube-Lozenge"/></symbol></svg>