<svg id="Layer_1" data-name="Layer 1" xmlns="http://www.w3.org/2000/svg" viewBox="0 0 116.13 26.54"><defs><style>.logo_border{fill:#0c151c;stroke-miterlimit:10;}</style></defs><title>logo myself</title><path class="logo_text" d="M195.32,277.14V256.49h5l2.2,13.77,2.37-13.77h4.83v20.65h-3.07l-0.09-14.52q-0.34,2.24-1.2,7.26t-1.2,7.26H201l-2.54-14.61-0.09,14.61h-3.09Z" transform="translate(-141.14 -254.17)"/><path class="logo_text" d="M214,275.8a23,23,0,0,0-.61-4.38q-0.61-2.87-1.41-5.9t-0.87-3.35h3.52l1.39,8.35,1.22-8.35h3.54l-3.27,15.37a4.39,4.39,0,0,1-.53,1.36,3.24,3.24,0,0,1-.81.92,3.73,3.73,0,0,1-1.09.54,6.33,6.33,0,0,1-1.26.28,13.19,13.19,0,0,1-1.43.07H212V278a2.18,2.18,0,0,0,1.62-.54A2.47,2.47,0,0,0,214,275.8Z" transform="translate(-141.14 -254.17)"/><path class="logo_text" d="M221.47,271.23l4.23-.81q0,0.63,0,1.11a8.67,8.67,0,0,0,.12,1,3.79,3.79,0,0,0,.26.93,1.67,1.67,0,0,0,.47.61,1.1,1.1,0,0,0,.72.25q1.24,0,1.24-1.58,0-2.17-2.44-4.31l-1.3-1.1q-0.62-.52-1-0.86a11.75,11.75,0,0,1-.87-0.93,6,6,0,0,1-.78-1.13,6.65,6.65,0,0,1-.68-2.94,5.13,5.13,0,0,1,1.59-4,6,6,0,0,1,4.23-1.46,5,5,0,0,1,3.73,1.56,5.17,5.17,0,0,1,1.54,3.76v0.49l-4.31.6q0-.13,0-0.4t0-.44a5.28,5.28,0,0,0-.06-0.79,4.22,4.22,0,0,0-.19-0.76,1.31,1.31,0,0,0-.41-0.6,1,1,0,0,0-.67-0.22,1.14,1.14,0,0,0-1,.54,2.32,2.32,0,0,0-.34,1.27,3.55,3.55,0,0,0,.2,1.2,3.43,3.43,0,0,0,.61,1,9,9,0,0,0,.75.81q0.34,0.32.92,0.79t0.81,0.68a17.71,17.71,0,0,1,1.49,1.46,11.47,11.47,0,0,1,1.15,1.54,6.84,6.84,0,0,1,.81,1.86,8.25,8.25,0,0,1,.27,2.16,4.54,4.54,0,0,1-1.55,3.55,5.45,5.45,0,0,1-3.76,1.38,5.88,5.88,0,0,1-2.55-.53,4.74,4.74,0,0,1-1.8-1.43,7,7,0,0,1-1-2A8.68,8.68,0,0,1,221.47,271.23Z" transform="translate(-141.14 -254.17)"/><path class="logo_text" d="M233.93,273.25v-6.37a5.57,5.57,0,0,1,1.14-3.72,5.17,5.17,0,0,1,6.93,0,5.59,5.59,0,0,1,1.13,3.73V270h-5.33v3.32q0,1.26.73,1.26t0.8-1.35v-1.64h3.8v1.69a3.85,3.85,0,0,1-1.35,3,5.06,5.06,0,0,1-6.49,0A3.85,3.85,0,0,1,233.93,273.25Zm3.87-5.3h1.5v-2.06q0-1.14-.77-1.14t-0.73,1.14V268Z" transform="translate(-141.14 -254.17)"/><path class="logo_text" d="M244.92,277.14V256.49h3.87v20.65h-3.87Z" transform="translate(-141.14 -254.17)"/><path class="logo_text" d="M251.5,277.14V264.75h-0.87v-2.58h0.87v0q0-.69.06-1.22a10.14,10.14,0,0,1,.17-1.12,3.64,3.64,0,0,1,.36-1,3.68,3.68,0,0,1,.59-0.8,2.26,2.26,0,0,1,.91-0.56,3.87,3.87,0,0,1,1.26-.19q0.48,0,1.09,0l1,0.09,0.37,0v2.89l-1-.07a0.81,0.81,0,0,0-.69.27,1.69,1.69,0,0,0-.21,1v0.7h1.87v2.58h-1.87v12.39H251.5Z" transform="translate(-141.14 -254.17)"/><path id="_Path_" data-name="&lt;Path&gt;" class="logo_border" d="M181.09,267.95c-2.44,3.18-8.27,3.13-8.27,3.13l-9.75.08-9.75-.08s-5.84,0-8.27-3.13-5.83,2.91-.76,7.34c2.89,2.52,7.72,3.45,12.28,3.9A63,63,0,0,0,170.3,279c4.32-.53,8.76-1.53,11.55-3.76C187.14,271,183.52,264.77,181.09,267.95Z" transform="translate(-141.14 -254.17)"/><path id="_Path_2" data-name="&lt;Path&gt;" class="logo_border" d="M172.1,258.54c-0.16-6.93-4.14-2.42-8.45-2.54h-0.07c-4.32.11-8.29-4.39-8.45,2.54A24.94,24.94,0,0,1,151,271s4.41,2.67,12.35,2.59A27.82,27.82,0,0,0,176,271l0.15-.22A23.44,23.44,0,0,1,172.1,258.54Z" transform="translate(-141.14 -254.17)"/><path id="_Path_3" data-name="&lt;Path&gt;" class="logo_middle" d="M163.38,273.49c-7.94.08-12.35-2.59-12.35-2.59,3.94,4.93,12,4.74,12.59,4.68s8.73,0.34,12.43-4.72A27.82,27.82,0,0,1,163.38,273.49Z" transform="translate(-141.14 -254.17)"/><path id="_Path_4" data-name="&lt;Path&gt;" class="logo_middle" d="M163.38,270.59a27.92,27.92,0,0,1-11-1.93A20.62,20.62,0,0,1,151,271s4.41,2.67,12.35,2.59A27.82,27.82,0,0,0,176,271l0.15-.22a18.81,18.81,0,0,1-1.37-2.25A29.42,29.42,0,0,1,163.38,270.59Z" transform="translate(-141.14 -254.17)"/><path id="_Path_5" data-name="&lt;Path&gt;" class="logo_text" d="M169,277.25l0,0.17,0.51-.05,0-.17Z" transform="translate(-141.14 -254.17)"/><path id="_Path_6" data-name="&lt;Path&gt;" class="logo_text" d="M167.93,277.35v0.17l0.51,0,0-.17Z" transform="translate(-141.14 -254.17)"/><path id="_Path_7" data-name="&lt;Path&gt;" class="logo_text" d="M170.19,277.12l-0.22,0,0,0.17,0.22,0,0.29,0,0-.17Z" transform="translate(-141.14 -254.17)"/><path id="_Path_8" data-name="&lt;Path&gt;" class="logo_text" d="M171,277l0,0.17,0.51-.07,0-.17Z" transform="translate(-141.14 -254.17)"/><path id="_Path_9" data-name="&lt;Path&gt;" class="logo_text" d="M177.93,275.39l0.06,0.16,0.48-.19-0.07-.16Z" transform="translate(-141.14 -254.17)"/><path id="_Path_10" data-name="&lt;Path&gt;" class="logo_text" d="M178.86,275l0.07,0.16,0.46-.22-0.08-.15Z" transform="translate(-141.14 -254.17)"/><path id="_Path_11" data-name="&lt;Path&gt;" class="logo_text" d="M179.77,274.54l0.08,0.15,0.45-.26-0.09-.15Z" transform="translate(-141.14 -254.17)"/><path id="_Path_12" data-name="&lt;Path&gt;" class="logo_text" d="M180.64,274l0.1,0.14,0.42-.3-0.1-.14Z" transform="translate(-141.14 -254.17)"/><path id="_Path_13" data-name="&lt;Path&gt;" class="logo_text" d="M172,276.87l0,0.17,0.51-.08,0-.17Z" transform="translate(-141.14 -254.17)"/><path id="_Path_14" data-name="&lt;Path&gt;" class="logo_text" d="M175,276.28l0,0.17,0.5-.12,0-.17Z" transform="translate(-141.14 -254.17)"/><path id="_Path_15" data-name="&lt;Path&gt;" class="logo_text" d="M174,276.5l0,0.17,0.5-.11,0-.17Z" transform="translate(-141.14 -254.17)"/><path id="_Path_16" data-name="&lt;Path&gt;" class="logo_text" d="M176,276l0,0.17,0.49-.14,0-.16Z" transform="translate(-141.14 -254.17)"/><path id="_Path_17" data-name="&lt;Path&gt;" class="logo_text" d="M177,275.73l0.05,0.16,0.49-.17-0.06-.16Z" transform="translate(-141.14 -254.17)"/><path id="_Path_18" data-name="&lt;Path&gt;" class="logo_text" d="M173,276.7l0,0.17,0.5-.09,0-.17Z" transform="translate(-141.14 -254.17)"/></svg>