<?xml version="1.0" encoding="utf-8"?>
<!-- Generator: Adobe Illustrator 16.0.0, SVG Export Plug-In . SVG Version: 6.00 Build 0)  -->
<!DOCTYPE svg PUBLIC "-//W3C//DTD SVG 1.1//EN" "http://www.w3.org/Graphics/SVG/1.1/DTD/svg11.dtd">
<svg version="1.1" id="Layer_1" xmlns="http://www.w3.org/2000/svg" xmlns:xlink="http://www.w3.org/1999/xlink" x="0px" y="0px"
	 width="100px" height="100px" viewBox="0 0 100 100" enable-background="new 0 0 100 100" xml:space="preserve">
	 <style type="text/css">
	 path{
		fill:#fff;
		stroke:#000;
		stroke-dasharray:1200;		
		animation: my_animation 5s infinite;
	}
	@keyframes my_animation{
		0%{
			stroke-dashoffset:0;
		}
		50%{
			stroke-dashoffset:1200;
		}
		100%{
			stroke-dashoffset:0;
		}
	}
	</style>
<circle fill="none" stroke="#F0B000" stroke-miterlimit="10" stroke-dasharray="12.4322,12.4322" cx="49.5" cy="50" r="47.5">
<animateTransform  type="rotate" fill="remove" restart="always" calcMode="linear" additive="replace" accumulate="none" repeatCount="indefinite" dur="10s" to="360 50 50" from="0 50 50" attributeType="XML" attributeName="transform">
	</animateTransform>
</circle>
<circle fill="#F0B000" cx="50.25" cy="51.5" r="38.5"/>
<g>
	<path fill="none" stroke="#000000" stroke-width="2" stroke-miterlimit="10" d="M25.332,75.5V40.906
		c0-4.289,1.301-7.792,3.902-10.512c2.602-2.719,5.977-4.078,10.125-4.078c4.922,0,8.707,2.262,11.355,6.785
		c1.617-2.438,3.352-4.178,5.203-5.221c1.852-1.042,4.137-1.564,6.855-1.564c4.313,0,7.617,1.359,9.914,4.078
		c2.297,2.719,3.445,6.633,3.445,11.742V75.5H61.859V44.281c0-1.547-0.123-2.572-0.369-3.076c-0.246-0.504-0.744-0.756-1.494-0.756
		c-1.406,0-2.109,1.195-2.109,3.586V75.5H43.613V44.281c0-1.523-0.129-2.543-0.387-3.059c-0.258-0.515-0.762-0.773-1.512-0.773
		c-1.406,0-2.109,1.278-2.109,3.832V75.5H25.332z"/>
</g>
</svg>
